HIERARCHY
ROOT Hips
{
  OFFSET 0 0 0
  CHANNELS 6 Xposition Yposition Zposition Zrotation Yrotation Xrotation
  JOINT LeftThigh
  {
    OFFSET 8.409438 0 -5.917753
    CHANNELS 3 Zrotation Yrotation Xrotation
    JOINT LeftLeg
    {
      OFFSET 0 0 -42.358652
      CHANNELS 3 Zrotation Yrotation Xrotation
      JOINT LeftFoot
      {
        OFFSET 0 0 -39.357303
        CHANNELS 3 Zrotation Yrotation Xrotation
      }
    }
  }
  JOINT RightThigh
  {
    OFFSET -8.409438 0 -5.917753
    CHANNELS 3 Zrotation Yrotation Xrotation
    JOINT RightLeg
    {
      OFFSET 0 0 -42.358652
      CHANNELS 3 Zrotation Yrotation Xrotation
      JOINT RightFoot
      {
        OFFSET 0 0 -39.357303
        CHANNELS 3 Zrotation Yrotation Xrotation
      }
    }
  }
  JOINT SpineLow
  {
    OFFSET 0 0 4.719101
    CHANNELS 3 Zrotation Yrotation Xrotation
    JOINT SpineMid
    {
      OFFSET 0 0 12.899191
      CHANNELS 3 Zrotation Yrotation Xrotation
      JOINT Chest
      {
        OFFSET 0 0 12.899191
        CHANNELS 3 Zrotation Yrotation Xrotation
        JOINT LeftShoulder
        {
          OFFSET 7.550562 1.41573 9.438202
          CHANNELS 3 Zrotation Yrotation Xrotation
          JOINT LeftArm
          {
            OFFSET 9.155056 0 4.247191
            CHANNELS 3 Zrotation Yrotation Xrotation
            JOINT LeftForearm
            {
              OFFSET 0 0 25.771955
              CHANNELS 3 Zrotation Yrotation Xrotation
              JOINT LeftHand
              {
                OFFSET 0 0 25.197169
                CHANNELS 3 Zrotation Yrotation Xrotation
              }
            }
          }
        }
        JOINT RightShoulder
        {
          OFFSET -7.550562 1.41573 9.438202
          CHANNELS 3 Zrotation Yrotation Xrotation
          JOINT RightArm
          {
            OFFSET -9.155056 0 4.247191
            CHANNELS 3 Zrotation Yrotation Xrotation
            JOINT RightForearm
            {
              OFFSET 0 0 -25.771955
              CHANNELS 3 Zrotation Yrotation Xrotation
              JOINT RightHand
              {
                OFFSET 0 0 -25.197169
                CHANNELS 3 Zrotation Yrotation Xrotation
              }
            }
          }
        }
        JOINT Neck
        {
          OFFSET 0 0 15.101124
          CHANNELS 3 Zrotation Yrotation Xrotation
          JOINT Head
          {
            OFFSET 0 0 11.325843
            CHANNELS 3 Zrotation Yrotation Xrotation
            End Site
            {
              OFFSET 0 0 14.157303
            }
          }
        }
      }
    }
  }
}
MOTION
Frames: 11
Frame Time: 0.0
0.0  93.25843  0.0  -0.268162  33.335395  -82.745484  6.595141  -13.176851  19.039683  1.652703  -2.946899  0.727228  1.941784  1.836636  -2.578104  -22.432293  -12.600404  -41.944648  -7.556176  18.852463  25.319632  5.328692  0.320023  4.038065  -2.615644  -0.651752  -0.370271  -7.141085  -1.81908  -0.940512  -7.141085  -1.81908  -0.940512  -21.435869  22.670759  3.946685  116.962749  47.937283  -160.485435  -23.061967  -14.373439  77.091869  -2.616178  -3.209295  113.837249  6.116415  -9.442542  13.623359  88.977686  67.910635  22.604453  -49.991524  -7.133807  -65.781978  90.906521  -12.844773  23.370514  -8.060234  1.532748  1.946622  -6.049769  1.124132  1.480405  
0.0  93.25843  0.0  -0.63724  32.3257  -82.837963  7.213721  -13.579552  19.608583  2.195275  -2.8597  0.338829  1.600888  1.817348  -2.51218  -21.671335  -13.624406  -41.582362  -6.729231  19.278859  25.470492  5.652661  0.226812  4.094746  -2.625029  -0.711972  -0.398183  -7.165291  -1.986604  -1.009965  -7.165291  -1.986605  -1.009965  -21.322644  22.623987  3.686652  117.673096  47.932088  -160.294915  -23.159393  -14.247712  77.025324  -2.410111  -3.179062  114.012454  6.504816  -9.471462  13.527714  90.68874  67.887855  24.021202  -49.791954  -7.040313  -65.514446  90.439387  -13.292253  23.73693  -7.52109  1.592054  1.928109  -5.645544  1.170536  1.46585  
0.0  93.25843  0.0  -1.179322  31.07039  -83.118852  8.10013  -14.282127  20.173781  2.513311  -2.733729  0.357061  0.996228  1.589734  -2.572245  -20.448583  -14.556676  -41.114325  -5.724622  19.536682  25.640669  5.775082  0.166884  4.13619  -2.627496  -0.773157  -0.397456  -7.171398  -2.153576  -1.001306  -7.171398  -2.153575  -1.001306  -21.072304  22.439938  3.468924  118.316475  47.984712  -160.08085  -23.28648  -14.270698  76.929016  -2.346617  -3.232778  114.17515  6.774868  -9.578885  13.300974  92.531785  67.865006  25.339813  -49.426998  -6.878292  -65.235451  89.991076  -13.938856  24.192064  -6.862009  1.600266  1.877727  -5.151147  1.179306  1.426389  
0.0  93.25843  0.0  -1.720305  30.238823  -83.34903  8.347554  -14.996375  20.465903  2.630151  -2.617252  0.749187  0.607145  1.605498  -2.699341  -19.463734  -15.404917  -40.693812  -4.784069  19.5082  25.788647  5.809815  0.280873  4.296383  -2.671116  -0.862842  -0.403597  -7.289536  -2.399668  -1.006803  -7.289537  -2.399668  -1.006803  -20.93654  22.363453  3.249165  118.972913  48.079544  -159.87194  -23.350477  -14.317386  76.897423  -2.383064  -3.421243  114.343653  7.225994  -9.641967  13.239521  94.080038  68.084986  26.606124  -49.093962  -6.323698  -64.841622  89.539897  -14.869762  24.671428  -6.25455  1.687185  1.786296  -4.695553  1.247276  1.357066  
0.0  93.25843  0.0  -2.386503  29.384565  -83.718331  8.327144  -15.607636  20.670193  2.758912  -2.478071  1.358205  0.534341  1.519172  -2.524366  -18.537886  -16.278653  -39.813938  -3.761358  19.070668  25.783077  5.539544  0.527373  4.430236  -2.709356  -0.971543  -0.406872  -7.392938  -2.697265  -1.002257  -7.392938  -2.697265  -1.002257  -20.842856  22.370186  3.079307  119.531591  48.262258  -159.792724  -23.430298  -14.3748  76.827386  -2.48549  -3.814494  114.571442  7.544081  -9.674817  13.190123  95.603171  68.302547  27.750545  -48.711409  -5.466918  -64.323762  89.07009  -16.051226  25.079433  -5.648806  1.802265  1.730596  -4.241399  1.335852  1.314636  
0.0  93.25843  0.0  -3.116367  28.573306  -84.12831  8.037278  -16.293704  20.602664  3.224972  -2.33721  2.660649  0.446649  1.389804  -2.410967  -17.750235  -17.10702  -38.602349  -2.974285  18.570425  25.490712  5.087474  0.861794  4.572574  -2.746496  -1.090401  -0.398969  -7.493843  -3.021289  -0.965756  -7.493843  -3.02129  -0.965756  -20.815321  22.298101  2.800591  119.998369  48.510542  -159.822982  -23.460976  -14.467339  76.717305  -2.777062  -4.512415  114.937559  7.978155  -9.794066  13.042306  96.900212  68.543149  28.846539  -48.263042  -4.449885  -63.723716  88.569823  -17.372222  25.357815  -5.058018  1.907919  1.665442  -3.798397  1.417285  1.264865  
0.0  93.25843  0.0  -3.877828  27.709432  -84.588938  7.875762  -16.928459  20.450965  3.78418  -2.451712  4.220707  0.313336  1.418133  -2.255418  -17.067658  -17.989872  -37.149327  -2.45521  18.331618  24.90925  4.756046  1.236914  4.732565  -2.767562  -1.215894  -0.395206  -7.550742  -3.363644  -0.940265  -7.550741  -3.363644  -0.940266  -20.862458  22.235931  2.437552  120.370638  48.733807  -160.047621  -23.387553  -14.651734  76.612624  -3.294022  -5.640764  115.498996  8.361861  -9.86299  12.895132  97.821088  68.74375  29.556399  -47.701786  -3.505116  -63.10412  88.085667  -18.692742  25.494845  -4.483426  2.034224  1.685161  -3.367857  1.513417  1.278749  
0.0  93.25843  0.0  -4.598823  26.746746  -85.075862  7.933955  -17.43831  20.380011  4.2807  -2.668608  5.809643  0.104393  1.354141  -2.078989  -16.167782  -18.715653  -35.776398  -2.576881  18.458878  24.202109  4.889849  1.384351  4.872244  -2.756242  -1.325663  -0.398833  -7.518889  -3.663503  -0.938352  -7.518889  -3.663503  -0.938352  -20.978172  22.102712  2.107677  120.624394  48.969817  -160.431399  -23.228401  -14.959671  76.539849  -4.066779  -7.232845  116.230446  8.642448  -9.945395  12.732902  98.297868  68.860327  29.798408  -46.998152  -2.791192  -62.507203  87.598075  -19.873991  25.642726  -3.976922  2.15642  1.825181  -2.988813  1.605537  1.382832  
0.0  93.25843  0.0  -5.214138  25.665824  -85.601892  8.13901  -18.05278  20.425389  4.540336  -2.785361  7.540657  0.071862  1.230622  -1.873212  -14.738537  -19.209123  -34.453263  -3.190011  18.788181  23.482999  5.183792  1.773979  4.908765  -2.72059  -1.413419  -0.405569  -7.420443  -3.903333  -0.948971  -7.420444  -3.903333  -0.948971  -21.03665  21.941327  1.860413  120.672111  49.262525  -160.96873  -23.102223  -15.347706  76.501002  -5.042144  -9.107917  117.007357  8.895552  -10.013856  12.59211  98.421878  68.91447  29.671385  -46.14136  -2.154651  -61.931278  87.043882  -20.912548  25.901467  -3.478496  2.290909  2.089799  -2.616398  1.706378  1.580246  
0.0  93.25843  0.0  -5.647382  24.474413  -86.126119  8.599916  -18.689872  20.470183  4.669276  -2.910951  9.527819  0.104529  1.133115  -1.619674  -13.21968  -19.581634  -33.131552  -3.612406  19.081572  22.899443  5.442139  1.874936  4.905585  -2.67343  -1.459136  -0.409983  -7.290869  -4.028006  -0.958839  -7.290869  -4.028006  -0.958839  -20.973779  21.680878  1.717226  120.626616  49.580002  -161.519041  -23.054324  -15.781337  76.491714  -6.175229  -11.006853  117.748967  9.226054  -10.134237  12.478671  98.29582  68.976183  29.31511  -45.169164  -1.251431  -61.349616  86.445364  -22.062759  26.468027  -2.957031  2.388859  2.426233  -2.226981  1.77999  1.831026  
0.0  93.25843  0.0  -5.864745  23.170943  -86.561064  9.194826  -19.196593  20.272195  4.550082  -3.11598  11.954242  0.195988  1.055979  -1.341726  -11.652185  -19.735983  -31.629191  -3.508825  18.995713  22.388045  5.14387  1.929752  4.797757  -2.61673  -1.465519  -0.415706  -7.13532  -4.045322  -0.977282  -7.13532  -4.045322  -0.977283  -20.771794  21.343711  1.586436  120.566911  49.898003  -162.031038  -23.094566  -16.153549  76.56568  -7.361647  -12.858479  118.390375  9.638734  -10.269094  12.388055  98.176352  69.108938  28.963682  -44.137064  0.252919  -60.732416  85.905472  -23.636352  27.388327  -2.387307  2.455656  2.763352  -1.801359  1.831028  2.081831  
